<?xml version="1.0" encoding="utf-8"?>
<!-- Generator: Adobe Illustrator 24.0.0, SVG Export Plug-In . SVG Version: 6.00 Build 0)  -->
<svg version="1.1" id="Layer_1" xmlns="http://www.w3.org/2000/svg" xmlns:xlink="http://www.w3.org/1999/xlink" x="0px" y="0px"
	 viewBox="0 0 448 512" style="enable-background:new 0 0 448 512;" xml:space="preserve">
<style type="text/css">
	.st0{fill:#FFFFFF;}
</style>
<path class="st0" d="M304,128c0-44.2-35.8-80-80-80s-80,35.8-80,80s35.8,80,80,80S304,172.2,304,128z M96,128C96,57.3,153.3,0,224,0
	s128,57.3,128,128s-57.3,128-128,128S96,198.7,96,128z M49.3,464h349.5c-8.9-63.3-63.3-112-129-112h-91.4
	C112.7,352,58.3,400.7,49.3,464L49.3,464z M0,482.3C0,383.8,79.8,304,178.3,304h91.4c98.5,0,178.3,79.8,178.3,178.3
	c0,16.4-13.3,29.7-29.7,29.7H29.7C13.3,512,0,498.7,0,482.3z"/>
</svg>
